<svg xmlns="http://www.w3.org/2000/svg" xmlns:xlink="http://www.w3.org/1999/xlink" width="24" height="24" viewBox="0 0 24 24">
    <defs>
        <path id="a" d="M18 14a4 4 0 1 1-4 4v-4h4zm-8 4a4 4 0 1 1-4-4h4v4zm-4-8a4 4 0 1 1 4-4v4H6zm8-4a4 4 0 1 1 4 4h-4V6zm-4 4v4h4v-4h-4zM8 8V6a2 2 0 1 0-2 2h2zm0 8H6a2 2 0 1 0 2 2v-2zm8 2a2 2 0 1 0 2-2h-2v2zm2-10a2 2 0 1 0-2-2v2h2zm-2 8H8V8h8v8z"/>
    </defs>
    <g fill="none" fill-rule="evenodd">
        <path d="M0 0h24v24H0z"/>
        <use fill="#252C32" fill-rule="nonzero" xlink:href="#a"/>
    </g>
</svg>
